<svg xmlns="http://www.w3.org/2000/svg" viewBox="0 0 400 480" width="400" height="480" role="img" aria-label="صورة توضيحية للمعلم">
  <defs>
    <linearGradient id="bgGrad" x1="0" y1="0" x2="1" y2="1">
      <stop offset="0%" stop-color="#FFE8A8"/>
      <stop offset="100%" stop-color="#F6B41A"/>
    </linearGradient>
  </defs>
  <rect width="400" height="480" fill="url(#bgGrad)"/>
  <!-- shoulders / jacket -->
  <path d="M60 480 C60 360 130 320 200 320 C270 320 340 360 340 480 Z" fill="#1F1F1F"/>
  <path d="M150 340 L200 400 L250 340 L230 325 L200 355 L170 325 Z" fill="#FAFAF7"/>
  <!-- neck -->
  <rect x="180" y="270" width="40" height="60" rx="18" fill="#E7A96B"/>
  <!-- head -->
  <ellipse cx="200" cy="210" rx="82" ry="90" fill="#F1BE8C"/>
  <!-- hair -->
  <path d="M118 200 C110 120 150 70 200 70 C255 70 292 120 282 205 C270 175 255 160 235 175 C225 150 205 145 200 165 C190 145 165 150 158 178 C140 165 125 175 118 200 Z" fill="#1F1F1F"/>
  <!-- glasses -->
  <circle cx="168" cy="215" r="26" fill="none" stroke="#1F1F1F" stroke-width="6"/>
  <circle cx="234" cy="215" r="26" fill="none" stroke="#1F1F1F" stroke-width="6"/>
  <line x1="194" y1="213" x2="208" y2="213" stroke="#1F1F1F" stroke-width="6"/>
  <!-- smile -->
  <path d="M178 258 Q200 275 222 258" fill="none" stroke="#1F1F1F" stroke-width="5" stroke-linecap="round"/>
  <!-- decorative shapes -->
  <circle cx="60" cy="60" r="26" fill="#FFFFFF" opacity="0.35"/>
  <circle cx="350" cy="90" r="16" fill="#1F1F1F" opacity="0.12"/>
  <circle cx="345" cy="430" r="34" fill="#FFFFFF" opacity="0.25"/>
</svg>
