<svg viewBox="0 0 1000 500" xmlns="http://www.w3.org/2000/svg" fill="none">
  <g fill="#C8A96A">
    <circle cx="120" cy="140" r="3"/><circle cx="140" cy="150" r="3"/><circle cx="160" cy="145" r="3"/>
    <circle cx="130" cy="165" r="3"/><circle cx="150" cy="175" r="3"/><circle cx="170" cy="170" r="3"/>
    <circle cx="190" cy="160" r="3"/><circle cx="200" cy="180" r="3"/><circle cx="220" cy="190" r="3"/>
    <circle cx="240" cy="200" r="3"/><circle cx="230" cy="220" r="3"/><circle cx="210" cy="230" r="3"/>
    <circle cx="250" cy="240" r="3"/><circle cx="260" cy="260" r="3"/><circle cx="245" cy="280" r="3"/>
    <circle cx="230" cy="300" r="3"/><circle cx="220" cy="320" r="3"/><circle cx="215" cy="340" r="3"/>

    <circle cx="440" cy="120" r="3"/><circle cx="460" cy="130" r="3"/><circle cx="480" cy="125" r="3"/>
    <circle cx="500" cy="140" r="3"/><circle cx="470" cy="150" r="3"/><circle cx="450" cy="160" r="3"/>
    <circle cx="490" cy="165" r="3"/><circle cx="510" cy="175" r="3"/><circle cx="460" cy="180" r="3"/>
    <circle cx="480" cy="200" r="3"/><circle cx="470" cy="220" r="3"/><circle cx="500" cy="230" r="3"/>
    <circle cx="490" cy="250" r="3"/><circle cx="510" cy="260" r="3"/><circle cx="530" cy="245" r="3"/>

    <circle cx="560" cy="130" r="3"/><circle cx="590" cy="120" r="3"/><circle cx="620" cy="115" r="3"/>
    <circle cx="650" cy="125" r="3"/><circle cx="680" cy="135" r="3"/><circle cx="710" cy="130" r="3"/>
    <circle cx="740" cy="140" r="3"/><circle cx="770" cy="150" r="3"/><circle cx="800" cy="160" r="3"/>
    <circle cx="600" cy="150" r="3"/><circle cx="630" cy="155" r="3"/><circle cx="660" cy="160" r="3"/>
    <circle cx="690" cy="165" r="3"/><circle cx="720" cy="170" r="3"/><circle cx="750" cy="175" r="3"/>
    <circle cx="780" cy="185" r="3"/><circle cx="810" cy="190" r="3"/><circle cx="840" cy="180" r="3"/>

    <circle cx="640" cy="200" r="3"/><circle cx="660" cy="220" r="3"/><circle cx="680" cy="240" r="3"/>
    <circle cx="700" cy="260" r="3"/><circle cx="690" cy="280" r="3"/><circle cx="670" cy="300" r="3"/>
    <circle cx="660" cy="320" r="3"/><circle cx="650" cy="340" r="3"/><circle cx="710" cy="290" r="3"/>
    <circle cx="730" cy="270" r="3"/><circle cx="750" cy="250" r="3"/>

    <circle cx="850" cy="330" r="3"/><circle cx="870" cy="340" r="3"/><circle cx="890" cy="335" r="3"/>
    <circle cx="880" cy="355" r="3"/><circle cx="860" cy="350" r="3"/>
  </g>
</svg>
